<mxfile host="app.diagrams.net" modified="2024-03-25T09:30:40.519Z" agent="Mozilla/5.0 (Windows NT 10.0; Win64; x64) AppleWebKit/537.36 (KHTML, like Gecko) Chrome/122.0.0.0 Safari/537.36" version="24.1.0" etag="Huw2uuZUWJGHn9sjAeRb" type="github">
  <diagram name="Page-1" id="wyQDzTpFTOErbujZhwO1">
    <mxGraphModel>
      <root>
        <mxCell id="0" />
        <mxCell id="1" parent="0" />
      </root>
    </mxGraphModel>
  </diagram>
</mxfile>
